<svg width="24" height="24" viewBox="0 0 24 24" fill="none" xmlns="http://www.w3.org/2000/svg">
<path d="M21 14.6452C21.0361 14.5931 21.0708 14.5392 21.1064 14.4886C22.013 13.1412 22.4981 11.5545 22.5 9.93047C22.515 5.27578 18.5878 1.5 13.7316 1.5C9.49595 1.5 5.96252 4.38234 5.1347 8.20875C5.01052 8.77584 4.94766 9.35463 4.9472 9.93516C4.9472 14.5945 8.72345 18.4716 13.5797 18.4716C14.3517 18.4716 15.3919 18.2395 15.9624 18.083C16.5328 17.9264 17.0981 17.7197 17.2444 17.6639C17.3906 17.6081 17.6194 17.5509 17.8017 17.6034L21.4308 18.6525C21.4627 18.6619 21.4965 18.6627 21.5288 18.6547C21.5611 18.6467 21.5907 18.6303 21.6146 18.6071C21.6385 18.5839 21.6557 18.5548 21.6646 18.5228C21.6735 18.4907 21.6737 18.4569 21.6652 18.4247L20.8345 15.2611C20.7769 15.0267 20.7694 14.9827 21 14.6452Z" fill="#075985"/>
<path d="M14.6503 19.471C14.2896 19.5287 13.9252 19.5608 13.56 19.5671C11.5711 19.5671 9.6928 19.0421 8.16937 18.0578C7.19486 17.4596 6.34894 16.6738 5.68077 15.7459C4.45827 14.1254 3.79171 12.0657 3.79171 9.91041C3.79171 9.76369 3.79687 9.6226 3.80202 9.48103C3.80388 9.43928 3.79283 9.39798 3.77039 9.36273C3.74794 9.32747 3.71519 9.29999 3.67657 9.28401C3.63796 9.26803 3.59536 9.26434 3.55457 9.27342C3.51378 9.2825 3.47677 9.30393 3.44859 9.33478C2.32618 10.5629 1.64767 12.1316 1.52141 13.7905C1.39515 15.4495 1.82842 17.1029 2.75202 18.4867C2.8678 18.6634 2.93343 18.7998 2.91327 18.8907L2.2528 22.2779C2.24671 22.3101 2.24917 22.3434 2.25993 22.3743C2.27069 22.4053 2.28938 22.4329 2.31414 22.4544C2.3389 22.4759 2.36886 22.4905 2.40103 22.4968C2.4332 22.5031 2.46646 22.5008 2.49749 22.4903L5.68499 21.354C5.78165 21.3158 5.88491 21.297 5.98883 21.2988C6.09276 21.3006 6.19531 21.3228 6.29062 21.3643C7.24452 21.7393 8.29968 21.9699 9.35484 21.9699C11.3858 21.9766 13.3422 21.205 14.8219 19.8137C14.8524 19.7839 14.8727 19.7452 14.8798 19.7031C14.8869 19.661 14.8804 19.6178 14.8613 19.5797C14.8422 19.5415 14.8115 19.5104 14.7735 19.4909C14.7356 19.4714 14.6925 19.4644 14.6503 19.471Z" fill="#075985"/>
</svg>
