<svg width="34" height="32" viewBox="0 0 34 32" fill="none" xmlns="http://www.w3.org/2000/svg">
<path d="M33.3043 14.4182L18.6907 0.654379C17.7643 -0.218126 16.2589 -0.218126 15.3326 0.654379L0.718953 14.4182C-0.207425 15.2907 -0.207425 16.7085 0.718953 17.581L15.3326 31.3448C16.2589 32.2173 17.7643 32.2173 18.6907 31.3448L33.3043 17.581C34.2075 16.7085 34.2075 15.2907 33.3043 14.4182ZM18.2275 27.2222C17.5559 27.8547 16.4442 27.8547 15.7726 27.2222L5.07294 17.1447C4.40132 16.5122 4.40132 15.4652 5.07294 14.8326L15.7726 4.75515C16.4442 4.12258 17.5559 4.12258 18.2275 4.75515L28.9272 14.8326C29.5988 15.4652 29.5988 16.5122 28.9272 17.1447L18.2275 27.2222Z" fill="#1E293B"/>
<path d="M24.4339 25.8915L23.438 26.8305C23.7854 26.5029 24.1328 26.1972 24.4339 25.8915Z" fill="#EFEFEF"/>
<path d="M33.3278 14.4401C31.2898 12.5206 27.4916 8.9651 27.4916 8.9651C27.8158 9.27047 28.1401 9.57585 28.4875 9.90304L27.4916 8.9651C19.5711 1.7233 16.4445 4.05725 15.8887 4.62438C15.8424 4.64619 15.7961 4.68982 15.7729 4.73344L5.0501 14.8327C4.37848 15.4653 4.37848 16.5123 5.0501 17.1448L15.7729 27.2441C16.4445 27.8766 17.5562 27.8766 18.2278 27.2441L28.9506 17.1448C29.576 16.5559 29.6223 15.6616 29.1128 15.0072C29.7844 15.6834 31.8456 18.6935 24.4346 25.8699L33.2815 17.5375C34.1847 16.7086 34.2773 15.3344 33.3278 14.4401ZM25.7315 16.8395L17.8804 24.2339C17.3941 24.692 16.5835 24.692 16.074 24.2339L8.22294 16.8395C7.73659 16.3814 7.73659 15.6179 8.22294 15.1381L16.074 7.74358C16.5603 7.28552 17.3709 7.28552 17.8804 7.74358L25.7315 15.1381C26.241 15.6179 26.241 16.3814 25.7315 16.8395Z" fill="#EFEFEF"/>
<path d="M11.5115 8.7039L12.2305 8.02698C11.9753 8.26717 11.7434 8.48554 11.5115 8.7039Z" fill="#1E293B"/>
<path d="M9.26543 21.1144C9.03384 20.8963 8.77909 20.6782 8.54749 20.4383L9.26543 21.1144C15.7269 27.0257 17.8576 24.2337 17.8576 24.2337L17.8807 24.2118C17.3249 24.6917 16.5607 24.6699 16.0743 24.2118L8.2001 16.7955C8.2001 16.7955 5.21252 14.7888 11.5119 8.70306L5.02724 14.8106C4.35562 15.4432 4.3093 16.4465 5.00409 17.1009" fill="#1E293B"/>
<path d="M9.56628 6.08664L10.5621 5.14771C10.1916 5.47524 9.86736 5.78094 9.56628 6.08664Z" fill="#D9D9D9"/>
<path d="M22.4656 23.2523C22.234 23.4704 22.0025 23.7104 21.7477 23.9285L22.4656 23.2523C28.8577 17.2102 25.7775 15.1598 25.7775 15.1598L25.7543 15.138C26.2638 15.6615 26.2406 16.3813 25.7543 16.8394L17.8801 24.2557C17.8801 24.2557 15.9115 26.8296 10.029 21.7908L5.04975 17.1011C5.04975 17.1011 0.996843 14.3746 9.56584 6.08575L0.718912 14.4182C-0.184306 15.2689 -0.276933 16.6431 0.672605 17.5374C2.71064 19.4569 15.2862 31.3012 15.2862 31.3012C15.2862 31.3012 15.2862 31.3012 15.2862 31.2793L6.48562 22.9905C6.16139 22.6852 5.83715 22.3798 5.48975 22.0526L6.48562 22.9905C14.1514 30.0142 17.3474 28.0293 18.0422 27.3967C18.0885 27.3531 18.1348 27.3094 18.1811 27.2658C19.6865 25.8698 22.4656 23.2523 22.4656 23.2523Z" fill="#D9D9D9"/>
<path d="M6.48561 23.0133L5.48975 22.0743C5.83714 22.4019 6.16138 22.7076 6.48561 23.0133Z" fill="#1E293B"/>
<path d="M33.2348 17.6028L24.4342 25.8916C24.11 26.197 23.7857 26.5024 23.4383 26.8295L24.4342 25.8916C31.8452 18.7152 29.8072 15.7051 29.1356 15.0289C29.0893 14.9853 29.0429 14.9198 28.9966 14.8762C27.885 13.8292 26.0785 12.1496 25.2216 11.3208C25.2911 11.3862 25.3838 11.4735 25.4532 11.5389L24.7353 10.8627C18.2738 4.95147 16.1431 7.74349 16.1431 7.74349L16.12 7.76531C16.6758 7.28543 17.4401 7.30725 17.9264 7.76531L25.8006 15.1816C25.8006 15.1816 28.464 16.992 23.392 22.358L18.2043 27.244C18.2043 27.244 15.3094 31.0612 6.50879 22.9905L15.3557 31.323C16.2589 32.1736 17.718 32.2609 18.6675 31.3666C20.6592 29.4689 33.258 17.6028 33.2348 17.6028Z" fill="#1E293B"/>
<path d="M24.7119 10.8627C24.7119 10.8627 24.8975 11.0374 25.199 11.3213C25.0366 11.1684 24.8743 11.0156 24.7119 10.8627Z" fill="#1E293B"/>
</svg>
