<svg width="243" height="20" viewBox="0 0 243 20" fill="none" xmlns="http://www.w3.org/2000/svg">
<path d="M5.144 1.744C5.944 1.744 6.552 1.84 6.968 2.032C7.384 2.208 7.752 2.408 8.072 2.632C8.264 2.744 8.416 2.832 8.528 2.896C8.656 2.944 8.776 2.968 8.888 2.968C9.048 2.968 9.16 2.88 9.224 2.704C9.304 2.528 9.368 2.264 9.416 1.912H9.968C9.952 2.184 9.928 2.512 9.896 2.896C9.88 3.264 9.864 3.76 9.848 4.384C9.848 4.992 9.848 5.8 9.848 6.808H9.296C9.248 6.04 9.08 5.304 8.792 4.6C8.504 3.896 8.08 3.32 7.52 2.872C6.976 2.424 6.256 2.2 5.36 2.2C4.512 2.2 3.808 2.456 3.248 2.968C2.704 3.48 2.432 4.152 2.432 4.984C2.432 5.704 2.616 6.312 2.984 6.808C3.352 7.288 3.84 7.728 4.448 8.128C5.072 8.512 5.744 8.928 6.464 9.376C7.296 9.888 8.032 10.4 8.672 10.912C9.328 11.408 9.84 11.96 10.208 12.568C10.592 13.176 10.784 13.912 10.784 14.776C10.784 15.8 10.552 16.648 10.088 17.32C9.624 17.992 9.008 18.496 8.24 18.832C7.472 19.168 6.624 19.336 5.696 19.336C4.848 19.336 4.176 19.24 3.68 19.048C3.184 18.856 2.76 18.656 2.408 18.448C2.056 18.224 1.784 18.112 1.592 18.112C1.432 18.112 1.312 18.2 1.232 18.376C1.168 18.552 1.112 18.816 1.064 19.168H0.512C0.544 18.832 0.56 18.44 0.56 17.992C0.576 17.528 0.584 16.928 0.584 16.192C0.6 15.456 0.608 14.528 0.608 13.408H1.16C1.224 14.368 1.4 15.264 1.688 16.096C1.992 16.928 2.448 17.6 3.056 18.112C3.68 18.608 4.504 18.856 5.528 18.856C6.056 18.856 6.552 18.752 7.016 18.544C7.496 18.32 7.888 17.976 8.192 17.512C8.496 17.032 8.648 16.416 8.648 15.664C8.648 15.008 8.488 14.44 8.168 13.96C7.864 13.464 7.432 13.008 6.872 12.592C6.312 12.16 5.656 11.72 4.904 11.272C4.152 10.808 3.448 10.336 2.792 9.856C2.136 9.376 1.608 8.824 1.208 8.2C0.824 7.56 0.632 6.792 0.632 5.896C0.632 4.952 0.84 4.176 1.256 3.568C1.688 2.944 2.248 2.488 2.936 2.2C3.624 1.896 4.36 1.744 5.144 1.744ZM24.9209 2.656V6.664H28.4729V7.144H24.9209V16.432C24.9209 17.184 25.0569 17.712 25.3289 18.016C25.6009 18.32 25.9769 18.472 26.4569 18.472C26.9369 18.472 27.3529 18.28 27.7049 17.896C28.0569 17.496 28.3609 16.832 28.6169 15.904L29.0969 16.024C28.9369 16.952 28.6169 17.736 28.1369 18.376C27.6729 19.016 26.9529 19.336 25.9769 19.336C25.4329 19.336 24.9849 19.264 24.6329 19.12C24.2809 18.992 23.9689 18.8 23.6969 18.544C23.3449 18.176 23.0969 17.736 22.9529 17.224C22.8249 16.712 22.7609 16.032 22.7609 15.184V7.144H20.4569V6.664H22.7609V2.992C23.1609 2.976 23.5449 2.944 23.9129 2.896C24.2809 2.848 24.6169 2.768 24.9209 2.656ZM41.3493 19.168C40.6933 19.168 40.1253 19.048 39.6453 18.808C39.1653 18.552 38.7973 18.2 38.5413 17.752C38.3013 17.304 38.1813 16.784 38.1813 16.192C38.1813 15.488 38.3413 14.912 38.6613 14.464C38.9973 14.016 39.4213 13.656 39.9333 13.384C40.4453 13.112 40.9813 12.888 41.5413 12.712C42.1173 12.52 42.6613 12.344 43.1733 12.184C43.6853 12.008 44.1013 11.808 44.4213 11.584C44.7573 11.36 44.9253 11.064 44.9253 10.696V9.208C44.9253 8.536 44.8213 8.024 44.6133 7.672C44.4213 7.32 44.1573 7.088 43.8213 6.976C43.4853 6.848 43.1093 6.784 42.6933 6.784C42.2933 6.784 41.8613 6.84 41.3973 6.952C40.9493 7.064 40.5893 7.296 40.3173 7.648C40.6213 7.712 40.8853 7.872 41.1093 8.128C41.3333 8.384 41.4453 8.712 41.4453 9.112C41.4453 9.512 41.3173 9.832 41.0613 10.072C40.8053 10.296 40.4773 10.408 40.0773 10.408C39.6133 10.408 39.2693 10.264 39.0453 9.976C38.8373 9.672 38.7333 9.336 38.7333 8.968C38.7333 8.552 38.8373 8.216 39.0453 7.96C39.2533 7.704 39.5173 7.464 39.8373 7.24C40.2053 6.984 40.6773 6.768 41.2533 6.592C41.8453 6.4 42.5093 6.304 43.2453 6.304C43.9013 6.304 44.4613 6.384 44.9253 6.544C45.3893 6.688 45.7733 6.904 46.0773 7.192C46.4933 7.576 46.7653 8.048 46.8933 8.608C47.0213 9.152 47.0853 9.808 47.0853 10.576V17.248C47.0853 17.648 47.1413 17.936 47.2533 18.112C47.3813 18.288 47.5733 18.376 47.8293 18.376C48.0053 18.376 48.1733 18.336 48.3333 18.256C48.4933 18.176 48.6853 18.048 48.9093 17.872L49.1733 18.28C48.8373 18.536 48.5173 18.752 48.2133 18.928C47.9093 19.088 47.5013 19.168 46.9893 19.168C46.5253 19.168 46.1413 19.088 45.8373 18.928C45.5333 18.768 45.3013 18.536 45.1413 18.232C44.9973 17.912 44.9253 17.512 44.9253 17.032C44.4933 17.752 43.9733 18.288 43.3653 18.64C42.7733 18.992 42.1013 19.168 41.3493 19.168ZM42.2133 18.208C42.7413 18.208 43.2293 18.056 43.6773 17.752C44.1413 17.448 44.5573 16.992 44.9253 16.384V11.68C44.7333 11.952 44.4533 12.184 44.0853 12.376C43.7173 12.552 43.3173 12.736 42.8853 12.928C42.4533 13.104 42.0373 13.32 41.6373 13.576C41.2533 13.816 40.9333 14.136 40.6773 14.536C40.4213 14.936 40.2933 15.456 40.2933 16.096C40.2933 16.736 40.4613 17.248 40.7973 17.632C41.1493 18.016 41.6213 18.208 42.2133 18.208ZM65.7584 6.304C66.1904 6.304 66.5664 6.392 66.8864 6.568C67.2224 6.744 67.4784 6.976 67.6544 7.264C67.8464 7.536 67.9424 7.848 67.9424 8.2C67.9424 8.6 67.8144 8.952 67.5584 9.256C67.3184 9.56 66.9904 9.712 66.5744 9.712C66.2384 9.712 65.9424 9.608 65.6864 9.4C65.4304 9.176 65.3024 8.864 65.3024 8.464C65.3024 8.16 65.3824 7.904 65.5424 7.696C65.7184 7.472 65.9104 7.296 66.1184 7.168C66.0064 7.008 65.8384 6.928 65.6144 6.928C65.1184 6.928 64.6624 7.08 64.2464 7.384C63.8304 7.672 63.4784 8.048 63.1904 8.512C62.9024 8.976 62.6784 9.472 62.5184 10C62.3584 10.512 62.2784 10.992 62.2784 11.44V16.528C62.2784 17.312 62.5024 17.84 62.9504 18.112C63.4144 18.368 64.0384 18.496 64.8224 18.496V19C64.4544 18.984 63.9344 18.968 63.2624 18.952C62.5904 18.92 61.8784 18.904 61.1264 18.904C60.5824 18.904 60.0384 18.92 59.4944 18.952C58.9664 18.968 58.5664 18.984 58.2944 19V18.496C58.9504 18.496 59.4144 18.376 59.6864 18.136C59.9744 17.896 60.1184 17.44 60.1184 16.768V9.256C60.1184 8.536 59.9904 8.008 59.7344 7.672C59.4784 7.32 58.9984 7.144 58.2944 7.144V6.64C58.8064 6.688 59.3024 6.712 59.7824 6.712C60.2464 6.712 60.6864 6.688 61.1024 6.64C61.5344 6.576 61.9264 6.488 62.2784 6.376V9.376C62.4544 8.912 62.7024 8.448 63.0224 7.984C63.3584 7.504 63.7584 7.104 64.2224 6.784C64.6864 6.464 65.1984 6.304 65.7584 6.304ZM80.6812 0.183999V16.768C80.6812 17.44 80.8012 17.896 81.0412 18.136C81.2812 18.376 81.6892 18.496 82.2652 18.496V19C82.0092 18.984 81.6252 18.968 81.1132 18.952C80.6172 18.92 80.1132 18.904 79.6012 18.904C79.0572 18.904 78.5052 18.92 77.9452 18.952C77.3852 18.968 76.9692 18.984 76.6972 19V18.496C77.3532 18.496 77.8172 18.376 78.0892 18.136C78.3772 17.896 78.5212 17.44 78.5212 16.768V3.064C78.5212 2.344 78.3932 1.816 78.1372 1.48C77.8812 1.128 77.4012 0.951999 76.6972 0.951999V0.447999C77.2092 0.495999 77.7052 0.519999 78.1852 0.519999C78.6492 0.519999 79.0892 0.495999 79.5052 0.447999C79.9372 0.383999 80.3292 0.296 80.6812 0.183999ZM88.3132 6.64V7.12C87.9132 7.152 87.5372 7.264 87.1852 7.456C86.8332 7.632 86.4892 7.896 86.1532 8.248L82.7692 11.8L83.1052 11.128L87.5692 17.248C87.8412 17.616 88.0972 17.904 88.3372 18.112C88.5932 18.32 88.8972 18.448 89.2492 18.496V19C89.0732 18.984 88.7932 18.968 88.4092 18.952C88.0412 18.92 87.6732 18.904 87.3052 18.904C86.8092 18.904 86.3052 18.92 85.7932 18.952C85.2812 18.968 84.8972 18.984 84.6412 19V18.496C84.9612 18.496 85.1852 18.416 85.3132 18.256C85.4412 18.096 85.4172 17.904 85.2412 17.68L82.4812 13.648C82.1772 13.216 81.8972 12.936 81.6412 12.808C81.4012 12.68 81.0492 12.608 80.5852 12.592V12.112C81.0972 12.048 81.5132 11.944 81.8332 11.8C82.1532 11.64 82.4572 11.408 82.7452 11.104L84.5212 9.256C85.0332 8.728 85.2892 8.312 85.2892 8.008C85.2892 7.688 85.1212 7.464 84.7852 7.336C84.4652 7.192 84.0412 7.12 83.5132 7.12V6.64C83.9292 6.656 84.3932 6.68 84.9052 6.712C85.4332 6.728 85.8732 6.736 86.2252 6.736C86.4972 6.736 86.7612 6.736 87.0172 6.736C87.2732 6.72 87.5132 6.704 87.7372 6.688C87.9612 6.672 88.1532 6.656 88.3132 6.64ZM101.245 0.639999C101.661 0.639999 102.021 0.791999 102.325 1.096C102.629 1.4 102.781 1.76 102.781 2.176C102.781 2.592 102.629 2.952 102.325 3.256C102.021 3.56 101.661 3.712 101.245 3.712C100.829 3.712 100.469 3.56 100.165 3.256C99.8605 2.952 99.7085 2.592 99.7085 2.176C99.7085 1.76 99.8605 1.4 100.165 1.096C100.469 0.791999 100.829 0.639999 101.245 0.639999ZM102.493 6.376V16.768C102.493 17.44 102.629 17.896 102.901 18.136C103.189 18.376 103.661 18.496 104.317 18.496V19C104.045 18.984 103.629 18.968 103.069 18.952C102.525 18.92 101.973 18.904 101.413 18.904C100.869 18.904 100.317 18.92 99.7565 18.952C99.1965 18.968 98.7805 18.984 98.5085 19V18.496C99.1645 18.496 99.6285 18.376 99.9005 18.136C100.189 17.896 100.333 17.44 100.333 16.768V9.256C100.333 8.536 100.205 8.008 99.9485 7.672C99.6925 7.32 99.2125 7.144 98.5085 7.144V6.64C99.0205 6.688 99.5165 6.712 99.9965 6.712C100.461 6.712 100.901 6.688 101.317 6.64C101.749 6.576 102.141 6.488 102.493 6.376ZM119.772 6.304C121.18 6.304 122.276 6.736 123.06 7.6C123.86 8.448 124.26 9.776 124.26 11.584H115.788L115.764 11.128H121.956C121.988 10.344 121.924 9.624 121.764 8.968C121.604 8.296 121.348 7.76 120.996 7.36C120.66 6.96 120.22 6.76 119.676 6.76C118.94 6.76 118.284 7.128 117.708 7.864C117.148 8.6 116.812 9.768 116.7 11.368L116.772 11.464C116.74 11.704 116.716 11.968 116.7 12.256C116.684 12.544 116.676 12.832 116.676 13.12C116.676 14.208 116.852 15.144 117.204 15.928C117.556 16.712 118.012 17.312 118.572 17.728C119.148 18.128 119.74 18.328 120.348 18.328C120.828 18.328 121.284 18.256 121.716 18.112C122.148 17.952 122.548 17.696 122.916 17.344C123.284 16.992 123.604 16.52 123.876 15.928L124.356 16.12C124.18 16.648 123.892 17.16 123.492 17.656C123.092 18.152 122.588 18.56 121.98 18.88C121.372 19.184 120.668 19.336 119.868 19.336C118.716 19.336 117.724 19.072 116.892 18.544C116.076 18.016 115.444 17.288 114.996 16.36C114.564 15.416 114.348 14.336 114.348 13.12C114.348 11.712 114.572 10.504 115.02 9.496C115.468 8.472 116.1 7.688 116.916 7.144C117.732 6.584 118.684 6.304 119.772 6.304ZM142.544 6.304C143.152 6.304 143.656 6.384 144.056 6.544C144.472 6.704 144.816 6.928 145.088 7.216C145.392 7.536 145.608 7.936 145.736 8.416C145.864 8.896 145.928 9.544 145.928 10.36V16.768C145.928 17.44 146.064 17.896 146.336 18.136C146.624 18.376 147.096 18.496 147.752 18.496V19C147.48 18.984 147.064 18.968 146.504 18.952C145.944 18.92 145.4 18.904 144.872 18.904C144.344 18.904 143.824 18.92 143.312 18.952C142.816 18.968 142.44 18.984 142.184 19V18.496C142.76 18.496 143.168 18.376 143.408 18.136C143.648 17.896 143.768 17.44 143.768 16.768V9.832C143.768 9.336 143.728 8.88 143.648 8.464C143.568 8.048 143.384 7.712 143.096 7.456C142.824 7.2 142.4 7.072 141.824 7.072C141.152 7.072 140.56 7.264 140.048 7.648C139.552 8.032 139.16 8.56 138.872 9.232C138.6 9.888 138.464 10.624 138.464 11.44V16.768C138.464 17.44 138.584 17.896 138.824 18.136C139.064 18.376 139.472 18.496 140.048 18.496V19C139.792 18.984 139.408 18.968 138.896 18.952C138.4 18.92 137.888 18.904 137.36 18.904C136.832 18.904 136.288 18.92 135.728 18.952C135.168 18.968 134.752 18.984 134.48 19V18.496C135.136 18.496 135.6 18.376 135.872 18.136C136.16 17.896 136.304 17.44 136.304 16.768V9.256C136.304 8.536 136.176 8.008 135.92 7.672C135.664 7.32 135.184 7.144 134.48 7.144V6.64C134.992 6.688 135.488 6.712 135.968 6.712C136.432 6.712 136.872 6.688 137.288 6.64C137.72 6.576 138.112 6.488 138.464 6.376V9.208C138.88 8.12 139.456 7.368 140.192 6.952C140.944 6.52 141.728 6.304 142.544 6.304ZM161.497 6.304C162.137 6.304 162.681 6.408 163.129 6.616C163.577 6.824 163.905 7.016 164.113 7.192C164.641 7.624 164.961 7.336 165.073 6.328H165.625C165.593 6.776 165.569 7.312 165.553 7.936C165.537 8.544 165.529 9.368 165.529 10.408H164.977C164.881 9.816 164.713 9.24 164.473 8.68C164.249 8.12 163.913 7.664 163.465 7.312C163.017 6.944 162.433 6.76 161.713 6.76C161.153 6.76 160.681 6.92 160.297 7.24C159.929 7.544 159.745 8 159.745 8.608C159.745 9.088 159.889 9.504 160.177 9.856C160.465 10.192 160.841 10.512 161.305 10.816C161.769 11.104 162.273 11.424 162.817 11.776C163.425 12.16 163.977 12.552 164.473 12.952C164.969 13.352 165.361 13.792 165.649 14.272C165.953 14.752 166.105 15.32 166.105 15.976C166.105 16.712 165.913 17.328 165.529 17.824C165.145 18.32 164.641 18.696 164.017 18.952C163.409 19.208 162.737 19.336 162.001 19.336C161.649 19.336 161.313 19.304 160.993 19.24C160.689 19.192 160.393 19.112 160.105 19C159.945 18.92 159.777 18.824 159.601 18.712C159.441 18.6 159.281 18.48 159.121 18.352C158.961 18.224 158.817 18.232 158.689 18.376C158.561 18.504 158.465 18.768 158.401 19.168H157.849C157.881 18.656 157.905 18.032 157.921 17.296C157.937 16.56 157.945 15.584 157.945 14.368H158.497C158.609 15.264 158.769 16.048 158.977 16.72C159.185 17.392 159.513 17.92 159.961 18.304C160.409 18.672 161.033 18.856 161.833 18.856C162.153 18.856 162.473 18.784 162.793 18.64C163.129 18.496 163.409 18.256 163.633 17.92C163.857 17.584 163.969 17.136 163.969 16.576C163.969 15.872 163.713 15.296 163.201 14.848C162.689 14.4 162.041 13.928 161.257 13.432C160.681 13.064 160.137 12.696 159.625 12.328C159.129 11.96 158.721 11.544 158.401 11.08C158.097 10.616 157.945 10.056 157.945 9.4C157.945 8.68 158.105 8.096 158.425 7.648C158.761 7.184 159.201 6.848 159.745 6.64C160.289 6.416 160.873 6.304 161.497 6.304ZM180.199 2.656V6.664H183.751V7.144H180.199V16.432C180.199 17.184 180.335 17.712 180.607 18.016C180.879 18.32 181.255 18.472 181.735 18.472C182.215 18.472 182.631 18.28 182.983 17.896C183.335 17.496 183.639 16.832 183.895 15.904L184.375 16.024C184.215 16.952 183.895 17.736 183.415 18.376C182.951 19.016 182.231 19.336 181.255 19.336C180.711 19.336 180.263 19.264 179.911 19.12C179.559 18.992 179.247 18.8 178.975 18.544C178.623 18.176 178.375 17.736 178.231 17.224C178.103 16.712 178.039 16.032 178.039 15.184V7.144H175.735V6.664H178.039V2.992C178.439 2.976 178.823 2.944 179.191 2.896C179.559 2.848 179.895 2.768 180.199 2.656ZM199.051 6.304C200.459 6.304 201.555 6.736 202.339 7.6C203.139 8.448 203.539 9.776 203.539 11.584H195.067L195.043 11.128H201.235C201.267 10.344 201.203 9.624 201.043 8.968C200.883 8.296 200.627 7.76 200.275 7.36C199.939 6.96 199.499 6.76 198.955 6.76C198.219 6.76 197.563 7.128 196.987 7.864C196.427 8.6 196.091 9.768 195.979 11.368L196.051 11.464C196.019 11.704 195.995 11.968 195.979 12.256C195.963 12.544 195.955 12.832 195.955 13.12C195.955 14.208 196.131 15.144 196.483 15.928C196.835 16.712 197.291 17.312 197.851 17.728C198.427 18.128 199.019 18.328 199.627 18.328C200.107 18.328 200.563 18.256 200.995 18.112C201.427 17.952 201.827 17.696 202.195 17.344C202.563 16.992 202.883 16.52 203.155 15.928L203.635 16.12C203.459 16.648 203.171 17.16 202.771 17.656C202.371 18.152 201.867 18.56 201.259 18.88C200.651 19.184 199.947 19.336 199.147 19.336C197.995 19.336 197.003 19.072 196.171 18.544C195.355 18.016 194.723 17.288 194.275 16.36C193.843 15.416 193.627 14.336 193.627 13.12C193.627 11.712 193.851 10.504 194.299 9.496C194.747 8.472 195.379 7.688 196.195 7.144C197.011 6.584 197.963 6.304 199.051 6.304ZM216.496 0.639999C216.912 0.639999 217.272 0.791999 217.576 1.096C217.88 1.4 218.032 1.76 218.032 2.176C218.032 2.592 217.88 2.952 217.576 3.256C217.272 3.56 216.912 3.712 216.496 3.712C216.08 3.712 215.72 3.56 215.416 3.256C215.112 2.952 214.96 2.592 214.96 2.176C214.96 1.76 215.112 1.4 215.416 1.096C215.72 0.791999 216.08 0.639999 216.496 0.639999ZM217.744 6.376V16.768C217.744 17.44 217.88 17.896 218.152 18.136C218.44 18.376 218.912 18.496 219.568 18.496V19C219.296 18.984 218.88 18.968 218.32 18.952C217.776 18.92 217.224 18.904 216.664 18.904C216.12 18.904 215.568 18.92 215.008 18.952C214.448 18.968 214.032 18.984 213.76 19V18.496C214.416 18.496 214.88 18.376 215.152 18.136C215.44 17.896 215.584 17.44 215.584 16.768V9.256C215.584 8.536 215.456 8.008 215.2 7.672C214.944 7.32 214.464 7.144 213.76 7.144V6.64C214.272 6.688 214.768 6.712 215.248 6.712C215.712 6.712 216.152 6.688 216.568 6.64C217 6.576 217.392 6.488 217.744 6.376ZM237.255 6.304C237.863 6.304 238.367 6.384 238.767 6.544C239.183 6.704 239.527 6.928 239.799 7.216C240.103 7.536 240.319 7.936 240.447 8.416C240.575 8.896 240.639 9.544 240.639 10.36V16.768C240.639 17.44 240.775 17.896 241.047 18.136C241.335 18.376 241.807 18.496 242.463 18.496V19C242.191 18.984 241.775 18.968 241.215 18.952C240.655 18.92 240.111 18.904 239.583 18.904C239.055 18.904 238.535 18.92 238.023 18.952C237.527 18.968 237.151 18.984 236.895 19V18.496C237.471 18.496 237.879 18.376 238.119 18.136C238.359 17.896 238.479 17.44 238.479 16.768V9.832C238.479 9.336 238.439 8.88 238.359 8.464C238.279 8.048 238.095 7.712 237.807 7.456C237.535 7.2 237.111 7.072 236.535 7.072C235.863 7.072 235.271 7.264 234.759 7.648C234.263 8.032 233.871 8.56 233.583 9.232C233.311 9.888 233.175 10.624 233.175 11.44V16.768C233.175 17.44 233.295 17.896 233.535 18.136C233.775 18.376 234.183 18.496 234.759 18.496V19C234.503 18.984 234.119 18.968 233.607 18.952C233.111 18.92 232.599 18.904 232.071 18.904C231.543 18.904 230.999 18.92 230.439 18.952C229.879 18.968 229.463 18.984 229.191 19V18.496C229.847 18.496 230.311 18.376 230.583 18.136C230.871 17.896 231.015 17.44 231.015 16.768V9.256C231.015 8.536 230.887 8.008 230.631 7.672C230.375 7.32 229.895 7.144 229.191 7.144V6.64C229.703 6.688 230.199 6.712 230.679 6.712C231.143 6.712 231.583 6.688 231.999 6.64C232.431 6.576 232.823 6.488 233.175 6.376V9.208C233.591 8.12 234.167 7.368 234.903 6.952C235.655 6.52 236.439 6.304 237.255 6.304Z" fill="white"/>
</svg>
