<svg width="143" height="13" viewBox="0 0 143 13" fill="none" xmlns="http://www.w3.org/2000/svg">
<path d="M3.584 1.86051C4.05067 1.86051 4.40533 1.91651 4.648 2.02851C4.89067 2.13118 5.10533 2.24785 5.292 2.37851C5.404 2.44385 5.49267 2.49518 5.558 2.53251C5.63267 2.56051 5.70267 2.57451 5.768 2.57451C5.86133 2.57451 5.92667 2.52318 5.964 2.42051C6.01067 2.31785 6.048 2.16385 6.076 1.95851H6.398C6.38867 2.11718 6.37467 2.30851 6.356 2.53251C6.34667 2.74718 6.33733 3.03651 6.328 3.40051C6.328 3.75518 6.328 4.22651 6.328 4.81451H6.006C5.978 4.36651 5.88 3.93718 5.712 3.52651C5.544 3.11585 5.29667 2.77985 4.97 2.51851C4.65267 2.25718 4.23267 2.12651 3.71 2.12651C3.21533 2.12651 2.80467 2.27585 2.478 2.57451C2.16067 2.87318 2.002 3.26518 2.002 3.75051C2.002 4.17051 2.10933 4.52518 2.324 4.81451C2.53867 5.09451 2.82333 5.35118 3.178 5.58451C3.542 5.80851 3.934 6.05118 4.354 6.31251C4.83933 6.61118 5.26867 6.90985 5.642 7.20851C6.02467 7.49785 6.32333 7.81985 6.538 8.17451C6.762 8.52918 6.874 8.95851 6.874 9.46251C6.874 10.0598 6.73867 10.5545 6.468 10.9465C6.19733 11.3385 5.838 11.6325 5.39 11.8285C4.942 12.0245 4.44733 12.1225 3.906 12.1225C3.41133 12.1225 3.01933 12.0665 2.73 11.9545C2.44067 11.8425 2.19333 11.7258 1.988 11.6045C1.78267 11.4738 1.624 11.4085 1.512 11.4085C1.41867 11.4085 1.34867 11.4598 1.302 11.5625C1.26467 11.6652 1.232 11.8192 1.204 12.0245H0.882C0.900667 11.8285 0.91 11.5998 0.91 11.3385C0.919333 11.0678 0.924 10.7178 0.924 10.2885C0.933333 9.85918 0.938 9.31785 0.938 8.66451H1.26C1.29733 9.22451 1.4 9.74718 1.568 10.2325C1.74533 10.7178 2.01133 11.1098 2.366 11.4085C2.73 11.6978 3.21067 11.8425 3.808 11.8425C4.116 11.8425 4.40533 11.7818 4.676 11.6605C4.956 11.5298 5.18467 11.3292 5.362 11.0585C5.53933 10.7785 5.628 10.4192 5.628 9.98051C5.628 9.59785 5.53467 9.26651 5.348 8.98651C5.17067 8.69718 4.91867 8.43118 4.592 8.18851C4.26533 7.93651 3.88267 7.67985 3.444 7.41851C3.00533 7.14785 2.59467 6.87251 2.212 6.59251C1.82933 6.31251 1.52133 5.99051 1.288 5.62651C1.064 5.25318 0.952 4.80518 0.952 4.28251C0.952 3.73185 1.07333 3.27918 1.316 2.92451C1.568 2.56051 1.89467 2.29451 2.296 2.12651C2.69733 1.94918 3.12667 1.86051 3.584 1.86051ZM15.1205 2.39251V4.73051H17.1925V5.01051H15.1205V10.4285C15.1205 10.8672 15.1999 11.1752 15.3585 11.3525C15.5172 11.5298 15.7365 11.6185 16.0165 11.6185C16.2965 11.6185 16.5392 11.5065 16.7445 11.2825C16.9499 11.0492 17.1272 10.6618 17.2765 10.1205L17.5565 10.1905C17.4632 10.7318 17.2765 11.1892 16.9965 11.5625C16.7259 11.9358 16.3059 12.1225 15.7365 12.1225C15.4192 12.1225 15.1579 12.0805 14.9525 11.9965C14.7472 11.9218 14.5652 11.8098 14.4065 11.6605C14.2012 11.4458 14.0565 11.1892 13.9725 10.8905C13.8979 10.5918 13.8605 10.1952 13.8605 9.70051V5.01051H12.5165V4.73051H13.8605V2.58851C14.0939 2.57918 14.3179 2.56051 14.5325 2.53251C14.7472 2.50451 14.9432 2.45785 15.1205 2.39251ZM24.7038 12.0245C24.3211 12.0245 23.9898 11.9545 23.7098 11.8145C23.4298 11.6652 23.2151 11.4598 23.0658 11.1985C22.9258 10.9372 22.8558 10.6338 22.8558 10.2885C22.8558 9.87785 22.9491 9.54185 23.1358 9.28051C23.3318 9.01918 23.5791 8.80918 23.8778 8.65051C24.1764 8.49185 24.4891 8.36118 24.8158 8.25851C25.1518 8.14651 25.4691 8.04385 25.7678 7.95051C26.0664 7.84785 26.3091 7.73118 26.4958 7.60051C26.6918 7.46985 26.7898 7.29718 26.7898 7.08251V6.21451C26.7898 5.82251 26.7291 5.52385 26.6078 5.31851C26.4958 5.11318 26.3418 4.97785 26.1458 4.91251C25.9498 4.83785 25.7304 4.80051 25.4878 4.80051C25.2544 4.80051 25.0024 4.83318 24.7318 4.89851C24.4704 4.96385 24.2604 5.09918 24.1018 5.30451C24.2791 5.34185 24.4331 5.43518 24.5638 5.58451C24.6944 5.73385 24.7598 5.92518 24.7598 6.15851C24.7598 6.39185 24.6851 6.57851 24.5358 6.71851C24.3864 6.84918 24.1951 6.91451 23.9618 6.91451C23.6911 6.91451 23.4904 6.83051 23.3598 6.66251C23.2384 6.48518 23.1778 6.28918 23.1778 6.07451C23.1778 5.83185 23.2384 5.63585 23.3598 5.48651C23.4811 5.33718 23.6351 5.19718 23.8218 5.06651C24.0364 4.91718 24.3118 4.79118 24.6478 4.68851C24.9931 4.57651 25.3804 4.52051 25.8098 4.52051C26.1924 4.52051 26.5191 4.56718 26.7898 4.66051C27.0604 4.74451 27.2844 4.87051 27.4618 5.03851C27.7044 5.26251 27.8631 5.53785 27.9378 5.86451C28.0124 6.18185 28.0498 6.56451 28.0498 7.01251V10.9045C28.0498 11.1378 28.0824 11.3058 28.1478 11.4085C28.2224 11.5112 28.3344 11.5625 28.4838 11.5625C28.5864 11.5625 28.6844 11.5392 28.7778 11.4925C28.8711 11.4458 28.9831 11.3712 29.1138 11.2685L29.2678 11.5065C29.0718 11.6558 28.8851 11.7818 28.7078 11.8845C28.5304 11.9778 28.2924 12.0245 27.9938 12.0245C27.7231 12.0245 27.4991 11.9778 27.3218 11.8845C27.1444 11.7912 27.0091 11.6558 26.9158 11.4785C26.8318 11.2918 26.7898 11.0585 26.7898 10.7785C26.5378 11.1985 26.2344 11.5112 25.8798 11.7165C25.5344 11.9218 25.1424 12.0245 24.7038 12.0245ZM25.2078 11.4645C25.5158 11.4645 25.8004 11.3758 26.0618 11.1985C26.3324 11.0212 26.5751 10.7552 26.7898 10.4005V7.65651C26.6778 7.81518 26.5144 7.95051 26.2998 8.06251C26.0851 8.16518 25.8518 8.27251 25.5998 8.38451C25.3478 8.48718 25.1051 8.61318 24.8718 8.76251C24.6478 8.90251 24.4611 9.08918 24.3118 9.32251C24.1624 9.55585 24.0878 9.85918 24.0878 10.2325C24.0878 10.6058 24.1858 10.9045 24.3818 11.1285C24.5871 11.3525 24.8624 11.4645 25.2078 11.4645ZM38.9424 4.52051C39.1944 4.52051 39.4138 4.57185 39.6004 4.67451C39.7964 4.77718 39.9458 4.91251 40.0484 5.08051C40.1604 5.23918 40.2164 5.42118 40.2164 5.62651C40.2164 5.85985 40.1418 6.06518 39.9924 6.24251C39.8524 6.41985 39.6611 6.50851 39.4184 6.50851C39.2224 6.50851 39.0498 6.44785 38.9004 6.32651C38.7511 6.19585 38.6764 6.01385 38.6764 5.78051C38.6764 5.60318 38.7231 5.45385 38.8164 5.33251C38.9191 5.20185 39.0311 5.09918 39.1524 5.02451C39.0871 4.93118 38.9891 4.88451 38.8584 4.88451C38.5691 4.88451 38.3031 4.97318 38.0604 5.15051C37.8178 5.31851 37.6124 5.53785 37.4444 5.80851C37.2764 6.07918 37.1458 6.36851 37.0524 6.67651C36.9591 6.97518 36.9124 7.25518 36.9124 7.51651V10.4845C36.9124 10.9418 37.0431 11.2498 37.3044 11.4085C37.5751 11.5578 37.9391 11.6325 38.3964 11.6325V11.9265C38.1818 11.9172 37.8784 11.9078 37.4864 11.8985C37.0944 11.8798 36.6791 11.8705 36.2404 11.8705C35.9231 11.8705 35.6058 11.8798 35.2884 11.8985C34.9804 11.9078 34.7471 11.9172 34.5884 11.9265V11.6325C34.9711 11.6325 35.2418 11.5625 35.4004 11.4225C35.5684 11.2825 35.6524 11.0165 35.6524 10.6245V6.24251C35.6524 5.82251 35.5778 5.51451 35.4284 5.31851C35.2791 5.11318 34.9991 5.01051 34.5884 5.01051V4.71651C34.8871 4.74451 35.1764 4.75851 35.4564 4.75851C35.7271 4.75851 35.9838 4.74451 36.2264 4.71651C36.4784 4.67918 36.7071 4.62785 36.9124 4.56251V6.31251C37.0151 6.04185 37.1598 5.77118 37.3464 5.50051C37.5424 5.22051 37.7758 4.98718 38.0464 4.80051C38.3171 4.61385 38.6158 4.52051 38.9424 4.52051ZM47.6474 0.950513V10.6245C47.6474 11.0165 47.7174 11.2825 47.8574 11.4225C47.9974 11.5625 48.2354 11.6325 48.5714 11.6325V11.9265C48.422 11.9172 48.198 11.9078 47.8994 11.8985C47.61 11.8798 47.316 11.8705 47.0174 11.8705C46.7 11.8705 46.378 11.8798 46.0514 11.8985C45.7247 11.9078 45.482 11.9172 45.3234 11.9265V11.6325C45.706 11.6325 45.9767 11.5625 46.1354 11.4225C46.3034 11.2825 46.3874 11.0165 46.3874 10.6245V2.63051C46.3874 2.21051 46.3127 1.90251 46.1634 1.70651C46.014 1.50118 45.734 1.39851 45.3234 1.39851V1.10451C45.622 1.13251 45.9114 1.14651 46.1914 1.14651C46.462 1.14651 46.7187 1.13251 46.9614 1.10451C47.2134 1.06718 47.442 1.01585 47.6474 0.950513ZM52.0994 4.71651V4.99651C51.866 5.01518 51.6467 5.08051 51.4414 5.19251C51.236 5.29518 51.0354 5.44918 50.8394 5.65451L48.8654 7.72651L49.0614 7.33451L51.6654 10.9045C51.824 11.1192 51.9734 11.2872 52.1134 11.4085C52.2627 11.5298 52.44 11.6045 52.6454 11.6325V11.9265C52.5427 11.9172 52.3794 11.9078 52.1554 11.8985C51.9407 11.8798 51.726 11.8705 51.5114 11.8705C51.222 11.8705 50.928 11.8798 50.6294 11.8985C50.3307 11.9078 50.1067 11.9172 49.9574 11.9265V11.6325C50.144 11.6325 50.2747 11.5858 50.3494 11.4925C50.424 11.3992 50.41 11.2872 50.3074 11.1565L48.6974 8.80451C48.52 8.55251 48.3567 8.38918 48.2074 8.31451C48.0674 8.23985 47.862 8.19785 47.5914 8.18851V7.90851C47.89 7.87118 48.1327 7.81051 48.3194 7.72651C48.506 7.63318 48.6834 7.49785 48.8514 7.32051L49.8874 6.24251C50.186 5.93451 50.3354 5.69185 50.3354 5.51451C50.3354 5.32785 50.2374 5.19718 50.0414 5.12251C49.8547 5.03851 49.6074 4.99651 49.2994 4.99651V4.71651C49.542 4.72585 49.8127 4.73985 50.1114 4.75851C50.4194 4.76785 50.676 4.77251 50.8814 4.77251C51.04 4.77251 51.194 4.77251 51.3434 4.77251C51.4927 4.76318 51.6327 4.75385 51.7634 4.74451C51.894 4.73518 52.006 4.72585 52.0994 4.71651ZM59.6426 1.21651C59.8853 1.21651 60.0953 1.30518 60.2726 1.48251C60.45 1.65985 60.5386 1.86985 60.5386 2.11251C60.5386 2.35518 60.45 2.56518 60.2726 2.74251C60.0953 2.91985 59.8853 3.00851 59.6426 3.00851C59.4 3.00851 59.19 2.91985 59.0126 2.74251C58.8353 2.56518 58.7466 2.35518 58.7466 2.11251C58.7466 1.86985 58.8353 1.65985 59.0126 1.48251C59.19 1.30518 59.4 1.21651 59.6426 1.21651ZM60.3706 4.56251V10.6245C60.3706 11.0165 60.45 11.2825 60.6086 11.4225C60.7766 11.5625 61.052 11.6325 61.4346 11.6325V11.9265C61.276 11.9172 61.0333 11.9078 60.7066 11.8985C60.3893 11.8798 60.0673 11.8705 59.7406 11.8705C59.4233 11.8705 59.1013 11.8798 58.7746 11.8985C58.448 11.9078 58.2053 11.9172 58.0466 11.9265V11.6325C58.4293 11.6325 58.7 11.5625 58.8586 11.4225C59.0266 11.2825 59.1106 11.0165 59.1106 10.6245V6.24251C59.1106 5.82251 59.036 5.51451 58.8866 5.31851C58.7373 5.11318 58.4573 5.01051 58.0466 5.01051V4.71651C58.3453 4.74451 58.6346 4.75851 58.9146 4.75851C59.1853 4.75851 59.442 4.74451 59.6846 4.71651C59.9366 4.67918 60.1653 4.62785 60.3706 4.56251ZM70.4502 4.52051C71.2715 4.52051 71.9109 4.77251 72.3682 5.27651C72.8349 5.77118 73.0682 6.54585 73.0682 7.60051H68.1262L68.1122 7.33451H71.7242C71.7429 6.87718 71.7055 6.45718 71.6122 6.07451C71.5189 5.68251 71.3695 5.36985 71.1642 5.13651C70.9682 4.90318 70.7115 4.78651 70.3942 4.78651C69.9649 4.78651 69.5822 5.00118 69.2462 5.43051C68.9195 5.85985 68.7235 6.54118 68.6582 7.47451L68.7002 7.53051C68.6815 7.67051 68.6675 7.82451 68.6582 7.99251C68.6489 8.16051 68.6442 8.32851 68.6442 8.49651C68.6442 9.13118 68.7469 9.67718 68.9522 10.1345C69.1575 10.5918 69.4235 10.9418 69.7502 11.1845C70.0862 11.4178 70.4315 11.5345 70.7862 11.5345C71.0662 11.5345 71.3322 11.4925 71.5842 11.4085C71.8362 11.3152 72.0695 11.1658 72.2842 10.9605C72.4989 10.7552 72.6855 10.4798 72.8442 10.1345L73.1242 10.2465C73.0215 10.5545 72.8535 10.8532 72.6202 11.1425C72.3869 11.4318 72.0929 11.6698 71.7382 11.8565C71.3835 12.0338 70.9729 12.1225 70.5062 12.1225C69.8342 12.1225 69.2555 11.9685 68.7702 11.6605C68.2942 11.3525 67.9255 10.9278 67.6642 10.3865C67.4122 9.83585 67.2862 9.20585 67.2862 8.49651C67.2862 7.67518 67.4169 6.97051 67.6782 6.38251C67.9395 5.78518 68.3082 5.32785 68.7842 5.01051C69.2602 4.68385 69.8155 4.52051 70.4502 4.52051ZM83.7342 4.52051C84.0889 4.52051 84.3829 4.56718 84.6162 4.66051C84.8589 4.75385 85.0596 4.88451 85.2182 5.05251C85.3956 5.23918 85.5216 5.47251 85.5962 5.75251C85.6709 6.03251 85.7082 6.41051 85.7082 6.88651V10.6245C85.7082 11.0165 85.7876 11.2825 85.9462 11.4225C86.1142 11.5625 86.3896 11.6325 86.7722 11.6325V11.9265C86.6136 11.9172 86.3709 11.9078 86.0442 11.8985C85.7176 11.8798 85.4002 11.8705 85.0922 11.8705C84.7842 11.8705 84.4809 11.8798 84.1822 11.8985C83.8929 11.9078 83.6736 11.9172 83.5242 11.9265V11.6325C83.8602 11.6325 84.0982 11.5625 84.2382 11.4225C84.3782 11.2825 84.4482 11.0165 84.4482 10.6245V6.57851C84.4482 6.28918 84.4249 6.02318 84.3782 5.78051C84.3316 5.53785 84.2242 5.34185 84.0562 5.19251C83.8976 5.04318 83.6502 4.96851 83.3142 4.96851C82.9222 4.96851 82.5769 5.08051 82.2782 5.30451C81.9889 5.52851 81.7602 5.83651 81.5922 6.22851C81.4336 6.61118 81.3542 7.04051 81.3542 7.51651V10.6245C81.3542 11.0165 81.4242 11.2825 81.5642 11.4225C81.7042 11.5625 81.9422 11.6325 82.2782 11.6325V11.9265C82.1289 11.9172 81.9049 11.9078 81.6062 11.8985C81.3169 11.8798 81.0182 11.8705 80.7102 11.8705C80.4022 11.8705 80.0849 11.8798 79.7582 11.8985C79.4316 11.9078 79.1889 11.9172 79.0302 11.9265V11.6325C79.4129 11.6325 79.6836 11.5625 79.8422 11.4225C80.0102 11.2825 80.0942 11.0165 80.0942 10.6245V6.24251C80.0942 5.82251 80.0196 5.51451 79.8702 5.31851C79.7209 5.11318 79.4409 5.01051 79.0302 5.01051V4.71651C79.3289 4.74451 79.6182 4.75851 79.8982 4.75851C80.1689 4.75851 80.4256 4.74451 80.6682 4.71651C80.9202 4.67918 81.1489 4.62785 81.3542 4.56251V6.21451C81.5969 5.57985 81.9329 5.14118 82.3622 4.89851C82.8009 4.64651 83.2582 4.52051 83.7342 4.52051ZM94.7897 4.52051C95.1631 4.52051 95.4804 4.58118 95.7417 4.70251C96.0031 4.82385 96.1944 4.93585 96.3157 5.03851C96.6237 5.29051 96.8104 5.12251 96.8757 4.53451H97.1977C97.1791 4.79585 97.1651 5.10851 97.1557 5.47251C97.1464 5.82718 97.1417 6.30785 97.1417 6.91451H96.8197C96.7637 6.56918 96.6657 6.23318 96.5257 5.90651C96.3951 5.57985 96.1991 5.31385 95.9377 5.10851C95.6764 4.89385 95.3357 4.78651 94.9157 4.78651C94.5891 4.78651 94.3137 4.87985 94.0897 5.06651C93.8751 5.24385 93.7677 5.50985 93.7677 5.86451C93.7677 6.14451 93.8517 6.38718 94.0197 6.59251C94.1877 6.78851 94.4071 6.97518 94.6777 7.15251C94.9484 7.32051 95.2424 7.50718 95.5597 7.71251C95.9144 7.93651 96.2364 8.16518 96.5257 8.39851C96.8151 8.63185 97.0437 8.88851 97.2117 9.16851C97.3891 9.44851 97.4777 9.77985 97.4777 10.1625C97.4777 10.5918 97.3657 10.9512 97.1417 11.2405C96.9177 11.5298 96.6237 11.7492 96.2597 11.8985C95.9051 12.0478 95.5131 12.1225 95.0837 12.1225C94.8784 12.1225 94.6824 12.1038 94.4957 12.0665C94.3184 12.0385 94.1457 11.9918 93.9777 11.9265C93.8844 11.8798 93.7864 11.8238 93.6837 11.7585C93.5904 11.6932 93.4971 11.6232 93.4037 11.5485C93.3104 11.4738 93.2264 11.4785 93.1517 11.5625C93.0771 11.6372 93.0211 11.7912 92.9837 12.0245H92.6617C92.6804 11.7258 92.6944 11.3618 92.7037 10.9325C92.7131 10.5032 92.7177 9.93385 92.7177 9.22451H93.0397C93.1051 9.74718 93.1984 10.2045 93.3197 10.5965C93.4411 10.9885 93.6324 11.2965 93.8937 11.5205C94.1551 11.7352 94.5191 11.8425 94.9857 11.8425C95.1724 11.8425 95.3591 11.8005 95.5457 11.7165C95.7417 11.6325 95.9051 11.4925 96.0357 11.2965C96.1664 11.1005 96.2317 10.8392 96.2317 10.5125C96.2317 10.1018 96.0824 9.76585 95.7837 9.50451C95.4851 9.24318 95.1071 8.96785 94.6497 8.67851C94.3137 8.46385 93.9964 8.24918 93.6977 8.03451C93.4084 7.81985 93.1704 7.57718 92.9837 7.30651C92.8064 7.03585 92.7177 6.70918 92.7177 6.32651C92.7177 5.90651 92.8111 5.56585 92.9977 5.30451C93.1937 5.03385 93.4504 4.83785 93.7677 4.71651C94.0851 4.58585 94.4257 4.52051 94.7897 4.52051ZM105.699 2.39251V4.73051H107.771V5.01051H105.699V10.4285C105.699 10.8672 105.779 11.1752 105.937 11.3525C106.096 11.5298 106.315 11.6185 106.595 11.6185C106.875 11.6185 107.118 11.5065 107.323 11.2825C107.529 11.0492 107.706 10.6618 107.855 10.1205L108.135 10.1905C108.042 10.7318 107.855 11.1892 107.575 11.5625C107.305 11.9358 106.885 12.1225 106.315 12.1225C105.998 12.1225 105.737 12.0805 105.531 11.9965C105.326 11.9218 105.144 11.8098 104.985 11.6605C104.78 11.4458 104.635 11.1892 104.551 10.8905C104.477 10.5918 104.439 10.1952 104.439 9.70051V5.01051H103.095V4.73051H104.439V2.58851C104.673 2.57918 104.897 2.56051 105.111 2.53251C105.326 2.50451 105.522 2.45785 105.699 2.39251ZM116.697 4.52051C117.518 4.52051 118.157 4.77251 118.615 5.27651C119.081 5.77118 119.315 6.54585 119.315 7.60051H114.373L114.359 7.33451H117.971C117.989 6.87718 117.952 6.45718 117.859 6.07451C117.765 5.68251 117.616 5.36985 117.411 5.13651C117.215 4.90318 116.958 4.78651 116.641 4.78651C116.211 4.78651 115.829 5.00118 115.493 5.43051C115.166 5.85985 114.97 6.54118 114.905 7.47451L114.947 7.53051C114.928 7.67051 114.914 7.82451 114.905 7.99251C114.895 8.16051 114.891 8.32851 114.891 8.49651C114.891 9.13118 114.993 9.67718 115.199 10.1345C115.404 10.5918 115.67 10.9418 115.997 11.1845C116.333 11.4178 116.678 11.5345 117.033 11.5345C117.313 11.5345 117.579 11.4925 117.831 11.4085C118.083 11.3152 118.316 11.1658 118.531 10.9605C118.745 10.7552 118.932 10.4798 119.091 10.1345L119.371 10.2465C119.268 10.5545 119.1 10.8532 118.867 11.1425C118.633 11.4318 118.339 11.6698 117.985 11.8565C117.63 12.0338 117.219 12.1225 116.753 12.1225C116.081 12.1225 115.502 11.9685 115.017 11.6605C114.541 11.3525 114.172 10.9278 113.911 10.3865C113.659 9.83585 113.533 9.20585 113.533 8.49651C113.533 7.67518 113.663 6.97051 113.925 6.38251C114.186 5.78518 114.555 5.32785 115.031 5.01051C115.507 4.68385 116.062 4.52051 116.697 4.52051ZM126.873 1.21651C127.115 1.21651 127.325 1.30518 127.503 1.48251C127.68 1.65985 127.769 1.86985 127.769 2.11251C127.769 2.35518 127.68 2.56518 127.503 2.74251C127.325 2.91985 127.115 3.00851 126.873 3.00851C126.63 3.00851 126.42 2.91985 126.243 2.74251C126.065 2.56518 125.977 2.35518 125.977 2.11251C125.977 1.86985 126.065 1.65985 126.243 1.48251C126.42 1.30518 126.63 1.21651 126.873 1.21651ZM127.601 4.56251V10.6245C127.601 11.0165 127.68 11.2825 127.839 11.4225C128.007 11.5625 128.282 11.6325 128.665 11.6325V11.9265C128.506 11.9172 128.263 11.9078 127.937 11.8985C127.619 11.8798 127.297 11.8705 126.971 11.8705C126.653 11.8705 126.331 11.8798 126.005 11.8985C125.678 11.9078 125.435 11.9172 125.277 11.9265V11.6325C125.659 11.6325 125.93 11.5625 126.089 11.4225C126.257 11.2825 126.341 11.0165 126.341 10.6245V6.24251C126.341 5.82251 126.266 5.51451 126.117 5.31851C125.967 5.11318 125.687 5.01051 125.277 5.01051V4.71651C125.575 4.74451 125.865 4.75851 126.145 4.75851C126.415 4.75851 126.672 4.74451 126.915 4.71651C127.167 4.67918 127.395 4.62785 127.601 4.56251ZM138.982 4.52051C139.337 4.52051 139.631 4.56718 139.864 4.66051C140.107 4.75385 140.308 4.88451 140.466 5.05251C140.644 5.23918 140.77 5.47251 140.844 5.75251C140.919 6.03251 140.956 6.41051 140.956 6.88651V10.6245C140.956 11.0165 141.036 11.2825 141.194 11.4225C141.362 11.5625 141.638 11.6325 142.02 11.6325V11.9265C141.862 11.9172 141.619 11.9078 141.292 11.8985C140.966 11.8798 140.648 11.8705 140.34 11.8705C140.032 11.8705 139.729 11.8798 139.43 11.8985C139.141 11.9078 138.922 11.9172 138.772 11.9265V11.6325C139.108 11.6325 139.346 11.5625 139.486 11.4225C139.626 11.2825 139.696 11.0165 139.696 10.6245V6.57851C139.696 6.28918 139.673 6.02318 139.626 5.78051C139.58 5.53785 139.472 5.34185 139.304 5.19251C139.146 5.04318 138.898 4.96851 138.562 4.96851C138.17 4.96851 137.825 5.08051 137.526 5.30451C137.237 5.52851 137.008 5.83651 136.84 6.22851C136.682 6.61118 136.602 7.04051 136.602 7.51651V10.6245C136.602 11.0165 136.672 11.2825 136.812 11.4225C136.952 11.5625 137.19 11.6325 137.526 11.6325V11.9265C137.377 11.9172 137.153 11.9078 136.854 11.8985C136.565 11.8798 136.266 11.8705 135.958 11.8705C135.65 11.8705 135.333 11.8798 135.006 11.8985C134.68 11.9078 134.437 11.9172 134.278 11.9265V11.6325C134.661 11.6325 134.932 11.5625 135.09 11.4225C135.258 11.2825 135.342 11.0165 135.342 10.6245V6.24251C135.342 5.82251 135.268 5.51451 135.118 5.31851C134.969 5.11318 134.689 5.01051 134.278 5.01051V4.71651C134.577 4.74451 134.866 4.75851 135.146 4.75851C135.417 4.75851 135.674 4.74451 135.916 4.71651C136.168 4.67918 136.397 4.62785 136.602 4.56251V6.21451C136.845 5.57985 137.181 5.14118 137.61 4.89851C138.049 4.64651 138.506 4.52051 138.982 4.52051Z" fill="black"/>
</svg>
