<svg width="25" height="16" viewBox="0 0 25 16" fill="none" xmlns="http://www.w3.org/2000/svg">
<path d="M1.59391 0.615792L1.59394 0.615813L24.2265 14.6013L24.2264 14.6014L24.2376 14.608C24.3133 14.652 24.3722 14.7054 24.4145 14.7614C24.4565 14.8171 24.4815 14.8746 24.4928 14.9297C24.5039 14.9845 24.5022 15.0403 24.4873 15.0954L24.9699 15.2263L24.4873 15.0954C24.4722 15.1509 24.4429 15.2085 24.3961 15.2636C24.3491 15.319 24.2854 15.3705 24.2058 15.4116C24.1261 15.4526 24.0344 15.4813 23.936 15.4934C23.8375 15.5056 23.7373 15.5008 23.6421 15.4795L23.5332 15.9675L23.6421 15.4795C23.5469 15.4583 23.4614 15.4217 23.3901 15.3749L23.3902 15.3747L23.3786 15.3676L19.8698 13.1992L19.5951 13.0294L19.3274 13.21C17.4814 14.4549 15.1523 15.4834 12.4863 15.4834C9.53891 15.4834 7.00506 14.2233 5.08231 12.8125L5.08195 12.8122C3.15067 11.3978 1.75175 9.76489 1.06498 8.8832L1.0643 8.88233C0.851761 8.61072 0.745331 8.30149 0.745331 7.9937C0.745331 7.68591 0.851761 7.37668 1.0643 7.10507L1.0643 7.10507L1.06552 7.1035C1.60257 6.41153 2.58233 5.25635 3.91333 4.10494L4.42811 3.65962L3.84924 3.30157L0.746407 1.38233C0.600124 1.29177 0.52613 1.17148 0.506106 1.06436C0.486679 0.960423 0.512716 0.843801 0.603628 0.736605C0.697902 0.625809 0.855768 0.535326 1.05314 0.508461C1.2505 0.481599 1.44611 0.524446 1.59391 0.615792ZM3.74571 4.41223L4.66666 4.9813C3.76893 5.78837 2.95309 6.66099 2.2287 7.58988C2.14217 7.69762 2.08759 7.83513 2.08574 7.98554L2.0857 7.98553V7.9917C2.0857 8.13286 2.13345 8.27396 2.22773 8.39229C2.8877 9.24075 4.21439 10.7807 6.01698 12.1041C7.82998 13.4363 10.0427 14.4855 12.4863 14.4855C14.4692 14.4855 16.2995 13.7946 17.8825 12.8256L18.5756 12.4013L17.8845 11.9739L14.4084 9.82411L14.1633 9.67249L13.9092 9.80867C13.4623 10.0483 12.9351 10.1713 12.3965 10.1562C11.8579 10.1411 11.3428 9.98886 10.9174 9.7261C10.4924 9.46357 10.1822 9.10697 10.0128 8.71153C9.84407 8.3179 9.81809 7.89488 9.9352 7.49189L10.0413 7.12684L9.71789 6.92702L6.35722 4.85041L6.8775 4.41223H5.50764H5.50608H3.74571ZM10.0094 1.8513L9.99979 1.85426C9.90859 1.88226 9.80998 1.89486 9.71049 1.89031C9.611 1.88577 9.51554 1.86431 9.43015 1.8289C9.34477 1.7935 9.27362 1.74594 9.2187 1.69248L8.86993 2.05074L9.2187 1.69247C9.16395 1.63918 9.12706 1.58182 9.10527 1.52588C9.08362 1.47032 9.0761 1.4144 9.08107 1.36006C9.08605 1.30559 9.10398 1.24877 9.13788 1.19276L8.71357 0.935973L9.13788 1.19276C9.17199 1.13639 9.2224 1.08085 9.2903 1.03251C9.3583 0.984096 9.44096 0.945059 9.53436 0.92071L9.5344 0.920871L9.5468 0.917294C10.4931 0.644331 11.4861 0.503218 12.487 0.5C15.4341 0.500223 17.9676 1.76021 19.8902 3.17091L19.8904 3.17105C21.8219 4.58698 23.2208 6.21864 23.9073 7.10125L23.9082 7.10238C24.1209 7.3742 24.2274 7.68367 24.2274 7.9917C24.2274 8.29973 24.1209 8.6092 23.9082 8.88101L23.9071 8.88246C23.7407 9.09665 23.5305 9.35546 23.2824 9.64562C23.2358 9.69977 23.1731 9.75008 23.0953 9.79041C23.0172 9.83086 22.9273 9.85934 22.8308 9.87203C22.7343 9.88472 22.6358 9.88099 22.5417 9.86135C22.4476 9.84171 22.3625 9.80712 22.2906 9.76219C22.2189 9.7173 22.1635 9.66412 22.1242 9.60888C22.0851 9.55393 22.0623 9.49759 22.0525 9.44355C22.0428 9.38975 22.0455 9.33491 22.061 9.28064C22.0766 9.22621 22.106 9.16977 22.1523 9.11582C22.3886 8.84191 22.5864 8.59564 22.7434 8.3953C22.8315 8.28575 22.8863 8.14542 22.8863 7.99237C22.8863 7.83979 22.8318 7.69985 22.7443 7.59044C22.0841 6.74184 20.7577 5.20235 18.9555 3.8793C17.1425 2.54714 14.9298 1.49792 12.4863 1.49792C11.6308 1.49792 10.8026 1.62531 10.0095 1.8514L10.0094 1.8513Z" fill="#6B7280" stroke="#6B7280"/>
</svg>
